# xmcd
#
# Track frame offsets:
#	150
#	13640
#	29922
#	54448
#	70708
#	82344
#	98368
#	124590
#	143742
#	155884
#	170243
#	186299
#	205620
#	213732
#	228322
#	240407
#
# Disc length: 3430 seconds
#
# Revision: 1
# Processed by: cddbd v1.5.2PL0 Copyright (c) Steve Scherf et al.
# Submitted via: audiograbber 1.83.01
#
DISCID=e20d6410
DTITLE=ALTAMIRO CARRILHO - PRIMEIRA NOITE EM NITERÓI
DYEAR=1900
DGENRE=Other
TTITLE0=SAMBA DE MORRO
TTITLE1=CANARINHO TEIMOSO
TTITLE2=FLAMENGO
TTITLE3=MEU SONHO É VOCÊ
TTITLE4=TICO-TICO NO FUBÁ
TTITLE5=ZINHA
TTITLE6=ASA BRANCA
TTITLE7=INGÊNUO
TTITLE8=AINDA ME RECORDO
TTITLE9=FLOR AMOROSA
TTITLE10=COLETÂNEA DE FOGO
TTITLE11=ROMANCE DE UMA VALSA
TTITLE12=URUBU-REI
TTITLE13=AMOR NÃO SE COMPRA
TTITLE14=NA GLÓRIA
TTITLE15=CARINHOSO
EXTD=
EXTT0=
EXTT1=
EXTT2=
EXTT3=
EXTT4=
EXTT5=
EXTT6=
EXTT7=
EXTT8=
EXTT9=
EXTT10=
EXTT11=
EXTT12=
EXTT13=
EXTT14=
EXTT15=
PLAYORDER=
